<?xml version="1.0" encoding="utf-8"?>
<!-- Generator: Adobe Illustrator 17.0.0, SVG Export Plug-In . SVG Version: 6.00 Build 0)  -->
<!DOCTYPE svg PUBLIC "-//W3C//DTD SVG 1.1//EN" "http://www.w3.org/Graphics/SVG/1.1/DTD/svg11.dtd">
<svg version="1.1" id="Ebene_1" xmlns="http://www.w3.org/2000/svg" xmlns:xlink="http://www.w3.org/1999/xlink" x="0px" y="0px"
	 width="340px" height="12.862px" viewBox="0 0 340 12.862" enable-background="new 0 0 340 12.862" xml:space="preserve">
<g>
	<path fill="#DD2920" d="M4.677,12.503L8.905,0.27H7.286L3.148,12.503H4.677z M1.529,12.503L5.667,0.27H4.138L0,12.503H1.529z"/>
	<path fill="#141515" d="M328.847,0.27v12.233h1.439V2.788h0.09l3.598,6.656h0.899l3.598-6.656h0.09v9.804H340V0.27h-1.619
		l-3.958,7.286l-3.958-7.286C330.466,0.27,328.847,0.27,328.847,0.27z M324.889,6.926V5.667h-4.228V1.619h5.127V0.27h-6.476v12.233
		h7.016v-1.259h-5.577V6.926H324.889z M311.936,1.619v10.884h1.439V1.619h3.958V0.27h-9.354v1.349H311.936z M303.392,5.757
		c-1.799-0.63-2.878-1.169-2.878-2.429s0.989-1.979,2.429-1.979c1.259,0,2.249,0.54,2.968,1.349l0.81-0.989
		C305.82,0.63,304.561,0,302.852,0c-2.159,0-3.868,1.079-3.778,3.328c0,1.889,1.439,2.878,3.598,3.598
		c1.799,0.63,2.608,1.169,2.608,2.339c0,1.439-0.989,1.979-2.429,1.979c-1.259,0-2.608-0.54-3.328-1.619l-0.899,0.899
		c0.899,1.349,2.608,2.069,4.228,2.069c2.249,0,3.778-1.079,3.778-3.328C306.81,7.466,305.64,6.566,303.392,5.757 M292.058,12.503
		h1.439V7.735l3.688-7.466h-1.619l-2.698,5.847h-0.09l-2.608-5.847h-1.619l3.598,7.466v4.767H292.058z M283.513,5.757
		c-1.799-0.63-2.878-1.169-2.878-2.429s0.989-1.979,2.429-1.979c1.259,0,2.249,0.54,2.968,1.349l0.81-0.989
		C285.942,0.63,284.683,0,282.974,0c-2.159,0-3.868,1.079-3.778,3.328c0,1.889,1.439,2.878,3.598,3.598
		c1.799,0.63,2.608,1.169,2.608,2.339c0,1.439-0.989,1.979-2.429,1.979c-1.259,0-2.608-0.54-3.328-1.619l-0.899,0.899
		c0.899,1.349,2.608,2.069,4.228,2.069c2.249,0,3.778-1.079,3.778-3.328C286.931,7.466,285.672,6.566,283.513,5.757 M271.64,6.926
		V5.667h-4.228V1.619h5.127V0.27h-6.566v12.233h7.016v-1.259h-5.577V6.926H271.64z M261.476,9.984h-0.09L255.36,0.27h-1.529v12.233
		h1.349V2.698h0.09l6.026,9.804h1.439V0.27h-1.349v9.714H261.476z M249.603,8.815c0,1.709-1.169,2.608-2.878,2.608h-0.27
		c-1.709,0-2.878-0.81-2.878-2.608V3.958c0-1.619,1.259-2.608,2.878-2.608h0.27c1.619,0,2.878,0.989,2.878,2.608V8.815z
		 M246.725,0.09h-0.27c-2.519,0-4.317,1.439-4.317,3.868v4.947c0,2.519,1.799,3.778,4.317,3.778h0.27
		c2.519,0,4.317-1.349,4.317-3.778V3.958C251.042,1.529,249.153,0.09,246.725,0.09 M219.651,6.926V5.667h-4.228V1.619h5.127V0.27
		h-6.566v12.233H221v-1.259h-5.577V6.926H219.651z M208.048,1.439c1.169,0,2.249,0.36,2.968,1.079l0.63-0.989
		c-0.899-0.899-2.159-1.349-3.688-1.349c-2.429,0-4.317,1.439-4.317,3.868v4.947c0,2.519,1.799,3.868,4.317,3.868
		c1.529,0,2.698-0.36,3.688-1.169l-0.63-0.989c-0.81,0.63-1.709,0.899-2.968,0.899c-1.709,0-2.968-0.899-2.968-2.608V3.958
		C205.169,2.339,206.429,1.439,208.048,1.439 M195.185,1.619h2.878c1.349,0,2.159,0.72,2.159,1.889v0.81
		c0,1.169-0.899,1.799-2.069,1.889h-2.968V1.619z M201.661,4.138v-0.72c0-1.979-1.349-3.148-3.508-3.148h-4.407v12.233h1.439V7.376
		h2.788l2.519,5.127h1.529l-2.698-5.487C200.852,6.746,201.661,5.757,201.661,4.138 M189.249,8.815c0,1.709-1.439,2.608-2.968,2.608
		c-1.619,0-3.058-0.81-3.058-2.608V0.27h-1.529v8.545c0,2.608,1.979,3.868,4.497,3.868c2.429,0,4.407-1.259,4.407-3.868V0.27h-1.439
		v8.545H189.249z M177.556,8.815c0,1.709-1.169,2.608-2.878,2.608h-0.27c-1.709,0-2.878-0.81-2.878-2.608V3.958
		c0-1.619,1.259-2.608,2.878-2.608h0.27c1.619,0,2.878,0.989,2.878,2.608V8.815z M174.677,0.09h-0.27
		c-2.519,0-4.317,1.439-4.317,3.868v4.947c0,2.519,1.799,3.778,4.317,3.778h0.27c2.519,0,4.317-1.349,4.317-3.778V3.958
		C178.995,1.529,177.106,0.09,174.677,0.09 M164.513,5.757c-1.799-0.63-2.878-1.169-2.878-2.429s0.989-1.979,2.429-1.979
		c1.259,0,2.249,0.54,2.968,1.349l0.81-0.989C166.942,0.63,165.683,0,163.974,0c-2.159,0-3.868,1.079-3.778,3.328
		c0,1.889,1.439,2.878,3.598,3.598c1.799,0.63,2.608,1.169,2.608,2.339c0,1.439-0.989,1.979-2.429,1.979
		c-1.259,0-2.608-0.54-3.328-1.619l-0.899,0.899c0.899,1.349,2.608,2.069,4.228,2.069c2.249,0,3.778-1.079,3.778-3.328
		C167.931,7.466,166.672,6.566,164.513,5.757 M152.64,6.926V5.667h-4.228V1.619h5.127V0.27h-6.566v12.233h7.016v-1.259h-5.577V6.926
		H152.64z M142.476,9.984h-0.09L136.36,0.27h-1.529v12.233h1.349V2.698h0.09l6.026,9.804h1.439V0.27h-1.349v9.714H142.476z
		 M130.603,8.815c0,1.709-1.169,2.608-2.878,2.608h-0.27c-1.709,0-2.878-0.81-2.878-2.608V3.958c0-1.619,1.259-2.608,2.878-2.608
		h0.27c1.619,0,2.878,0.989,2.878,2.608V8.815z M127.725,0.09h-0.27c-2.519,0-4.317,1.439-4.317,3.868v4.947
		c0,2.519,1.799,3.778,4.317,3.778h0.27c2.519,0,4.317-1.349,4.317-3.778V3.958C132.042,1.529,130.153,0.09,127.725,0.09
		 M100.291,8.545c0,1.889-1.439,2.698-3.148,2.698h-2.339V1.619h2.429c1.619,0,3.148,0.899,3.148,2.698v4.228H100.291z M93.365,0.27
		v12.233h3.778c2.519,0,4.587-1.259,4.587-3.958V4.228c0-2.608-2.069-3.958-4.587-3.958C97.143,0.27,93.365,0.27,93.365,0.27z
		 M88.868,9.984h-0.09L82.661,0.27h-1.529v12.233h1.349V2.698h0.09l6.026,9.804h1.439V0.27h-1.349v9.714H88.868z M72.317,7.646
		l1.799-5.487h0.09l1.799,5.487H72.317z M73.487,0.09l-4.228,12.413h1.619l1.169-3.688h4.407l1.169,3.688h1.529L75.016,0.09H73.487z
		 M61.434,1.619h2.878c1.349,0,2.159,0.72,2.159,1.889v0.81c0,1.169-0.899,1.799-2.069,1.889h-2.968
		C61.434,6.206,61.434,1.619,61.434,1.619z M67.91,4.138v-0.72c0-1.979-1.349-3.148-3.508-3.148h-4.407v12.233h1.439V7.376h2.788
		l2.519,5.127h1.529l-2.698-5.487C67.011,6.746,67.91,5.757,67.91,4.138 M50.64,1.529h2.519c1.259,0,2.249,0.54,2.249,1.979v0.36
		c0,1.169-0.899,1.799-2.069,1.799H50.64V1.529z M55.857,9.444c0,1.349-1.079,1.889-2.249,1.889H50.73V6.836h2.788
		c1.349,0,2.429,0.72,2.429,2.069v0.54H55.857z M56.847,3.778v-0.36c0-1.979-1.529-3.148-3.508-3.148h-4.138v12.233h4.497
		c1.979,0,3.508-1.079,3.508-2.968v-0.63c0-1.349-0.899-2.339-2.159-2.788C56.127,5.757,56.847,4.767,56.847,3.778 M41.376,6.926
		V5.667h-4.228V1.619h5.127V0.27h-6.566v12.233h7.016v-1.259h-5.577V6.926H41.376z M31.212,9.984h-0.09L25.095,0.27h-1.529v12.233
		h1.349V2.698h0.09l6.026,9.804h1.439V0.27h-1.349v9.714H31.212z M19.339,8.815c0,1.709-1.169,2.608-2.878,2.608h-0.27
		c-1.709,0-2.878-0.81-2.878-2.608V3.958c0-1.619,1.259-2.608,2.878-2.608h0.27c1.619,0,2.878,0.989,2.878,2.608V8.815z M16.46,0.09
		h-0.27c-2.519,0-4.317,1.439-4.317,3.868v4.947c0,2.519,1.799,3.778,4.317,3.778h0.27c2.519,0,4.317-1.349,4.317-3.778V3.958
		C20.778,1.529,18.889,0.09,16.46,0.09"/>
	<path fill="#DD2920" d="M115.942,12.503l4.138-12.233h-1.529l-4.138,12.233H115.942z M112.704,12.503l4.138-12.233h-1.529
		l-4.138,12.233H112.704z"/>
	<path fill="#DD2920" d="M235.032,12.503l4.138-12.233h-1.529l-4.138,12.233H235.032z M231.884,12.503l4.138-12.233h-1.529
		l-4.138,12.233H231.884z"/>
</g>
</svg>
